<svg width="48" height="40" viewBox="0 0 48 40" fill="none" xmlns="http://www.w3.org/2000/svg">
<rect width="48" height="40" rx="8" fill="#F0F1FF"/>
<path d="M28 29V27C28 25.9391 27.5786 24.9217 26.8284 24.1716C26.0783 23.4214 25.0609 23 24 23H18C16.9391 23 15.9217 23.4214 15.1716 24.1716C14.4214 24.9217 14 25.9391 14 27V29M34 29V27C33.9993 26.1137 33.7044 25.2528 33.1614 24.5523C32.6184 23.8519 31.8581 23.3516 31 23.13M28 11.13C28.8604 11.3503 29.623 11.8507 30.1676 12.5523C30.7122 13.2539 31.0078 14.1168 31.0078 15.005C31.0078 15.8932 30.7122 16.7561 30.1676 17.4577C29.623 18.1593 28.8604 18.6597 28 18.88M25 15C25 17.2091 23.2091 19 21 19C18.7909 19 17 17.2091 17 15C17 12.7909 18.7909 11 21 11C23.2091 11 25 12.7909 25 15Z" stroke="#181B28" stroke-width="2" stroke-linecap="round" stroke-linejoin="round"/>
</svg>
