<svg width="40" height="20" viewBox="0 0 40 20" fill="none" xmlns="http://www.w3.org/2000/svg">
<path d="M20 0L30 10L30 -4.37114e-07L20 0Z" fill="white"/>
<path d="M40 10L30 1.39079e-06L30 10L40 10Z" fill="white"/>
<path d="M5 0L15 10L15 -4.37114e-07L5 0Z" fill="white"/>
<path d="M25 10L15 1.39079e-06L15 10L25 10Z" fill="white"/>
<path d="M30 10L40 20L40 10L30 10Z" fill="white"/>
<path d="M40 20L30 10L30 20L40 20Z" fill="white"/>
<path d="M15 10L25 20L25 10L15 10Z" fill="white"/>
<path d="M25 20L15 10L15 20L25 20Z" fill="white"/>
<path d="M0 10L10 20L10 10L0 10Z" fill="white"/>
<path d="M10 20L1.47023e-06 10L1.90735e-06 20L10 20Z" fill="white"/>
</svg>
