<svg width="1496" height="72" viewBox="0 0 1496 72" fill="none" xmlns="http://www.w3.org/2000/svg">
<path d="M48 26L58 36L58 26L48 26Z" fill="white"/>
<path d="M68 36L58 26L58 36L68 36Z" fill="white"/>
<path d="M33 26L43 36L43 26L33 26Z" fill="white"/>
<path d="M53 36L43 26L43 36L53 36Z" fill="white"/>
<path d="M58 36L68 46L68 36L58 36Z" fill="white"/>
<path d="M68 46L58 36L58 46L68 46Z" fill="white"/>
<path d="M43 36L53 46L53 36L43 36Z" fill="white"/>
<path d="M53 46L43 36L43 46L53 46Z" fill="white"/>
<path d="M28 36L38 46L38 36L28 36Z" fill="white"/>
<path d="M38 46L28 36L28 46L38 46Z" fill="white"/>
<path d="M1272.62 32.1406V30.8182H1280.5V32.1406H1277.32V41H1275.79V32.1406H1272.62ZM1284.23 41.1541C1283.51 41.1541 1282.89 40.9901 1282.35 40.6619C1281.82 40.3338 1281.41 39.8748 1281.11 39.2848C1280.82 38.6948 1280.67 38.0054 1280.67 37.2166C1280.67 36.4245 1280.82 35.7318 1281.11 35.1385C1281.41 34.5452 1281.82 34.0845 1282.35 33.7564C1282.89 33.4283 1283.51 33.2642 1284.23 33.2642C1284.94 33.2642 1285.57 33.4283 1286.1 33.7564C1286.64 34.0845 1287.05 34.5452 1287.34 35.1385C1287.64 35.7318 1287.79 36.4245 1287.79 37.2166C1287.79 38.0054 1287.64 38.6948 1287.34 39.2848C1287.05 39.8748 1286.64 40.3338 1286.1 40.6619C1285.57 40.9901 1284.94 41.1541 1284.23 41.1541ZM1284.23 39.9062C1284.7 39.9062 1285.08 39.7836 1285.39 39.5384C1285.69 39.2931 1285.92 38.9666 1286.06 38.5589C1286.21 38.1513 1286.29 37.7022 1286.29 37.2116C1286.29 36.7244 1286.21 36.277 1286.06 35.8693C1285.92 35.4583 1285.69 35.1286 1285.39 34.88C1285.08 34.6314 1284.7 34.5071 1284.23 34.5071C1283.77 34.5071 1283.38 34.6314 1283.07 34.88C1282.76 35.1286 1282.54 35.4583 1282.39 35.8693C1282.24 36.277 1282.17 36.7244 1282.17 37.2116C1282.17 37.7022 1282.24 38.1513 1282.39 38.5589C1282.54 38.9666 1282.76 39.2931 1283.07 39.5384C1283.38 39.7836 1283.77 39.9062 1284.23 39.9062ZM1290.93 36.4659V41H1289.45V33.3636H1290.87V34.6065H1290.97C1291.14 34.2022 1291.42 33.8774 1291.79 33.6321C1292.17 33.3868 1292.65 33.2642 1293.22 33.2642C1293.74 33.2642 1294.2 33.3736 1294.59 33.5923C1294.98 33.8078 1295.28 34.1293 1295.5 34.5568C1295.71 34.9844 1295.82 35.513 1295.82 36.1428V41H1294.33V36.3217C1294.33 35.7682 1294.19 35.3357 1293.9 35.0241C1293.61 34.7093 1293.22 34.5518 1292.71 34.5518C1292.37 34.5518 1292.06 34.6264 1291.79 34.7756C1291.53 34.9247 1291.32 35.1435 1291.16 35.4318C1291.01 35.7169 1290.93 36.0616 1290.93 36.4659ZM1298.48 43.8636C1298.26 43.8636 1298.06 43.8454 1297.87 43.8089C1297.69 43.7758 1297.56 43.7393 1297.47 43.6996L1297.82 42.4815C1298.1 42.5545 1298.34 42.5859 1298.55 42.576C1298.76 42.5661 1298.95 42.4865 1299.11 42.3374C1299.28 42.1882 1299.42 41.9446 1299.55 41.6065L1299.73 41.0994L1296.94 33.3636H1298.53L1300.46 39.2898H1300.54L1302.48 33.3636H1304.07L1300.93 42.0192C1300.78 42.4169 1300.59 42.7533 1300.37 43.0284C1300.14 43.3068 1299.88 43.5156 1299.56 43.6548C1299.25 43.794 1298.89 43.8636 1298.48 43.8636ZM1305.59 41V30.8182H1307.08V34.6016H1307.17C1307.25 34.4425 1307.38 34.2585 1307.54 34.0497C1307.7 33.8409 1307.93 33.6586 1308.21 33.5028C1308.5 33.3438 1308.88 33.2642 1309.36 33.2642C1309.97 33.2642 1310.52 33.42 1311.01 33.7315C1311.49 34.0431 1311.87 34.4922 1312.15 35.0788C1312.43 35.6655 1312.56 36.3714 1312.56 37.1967C1312.56 38.022 1312.43 38.7296 1312.15 39.3196C1311.88 39.9062 1311.5 40.3587 1311.02 40.6768C1310.54 40.9917 1309.99 41.1491 1309.37 41.1491C1308.91 41.1491 1308.53 41.0713 1308.23 40.9155C1307.94 40.7597 1307.71 40.5774 1307.55 40.3686C1307.38 40.1598 1307.25 39.9742 1307.17 39.8118H1307.04V41H1305.59ZM1307.05 37.1818C1307.05 37.7187 1307.12 38.1894 1307.28 38.5938C1307.44 38.9981 1307.66 39.3146 1307.96 39.5433C1308.25 39.7687 1308.61 39.8814 1309.04 39.8814C1309.48 39.8814 1309.85 39.7637 1310.15 39.5284C1310.45 39.2898 1310.68 38.9666 1310.83 38.5589C1310.99 38.1513 1311.06 37.6922 1311.06 37.1818C1311.06 36.678 1310.99 36.2256 1310.83 35.8246C1310.69 35.4235 1310.46 35.107 1310.16 34.875C1309.86 34.643 1309.49 34.527 1309.04 34.527C1308.61 34.527 1308.24 34.638 1307.95 34.8601C1307.65 35.0821 1307.43 35.392 1307.27 35.7898C1307.12 36.1875 1307.05 36.6515 1307.05 37.1818ZM1315.72 30.8182V41H1314.23V30.8182H1315.72ZM1319.94 41.169C1319.46 41.169 1319.02 41.0795 1318.63 40.9006C1318.24 40.7183 1317.93 40.4548 1317.7 40.1101C1317.47 39.7654 1317.36 39.3428 1317.36 38.8423C1317.36 38.4115 1317.44 38.0568 1317.61 37.7784C1317.78 37.5 1318 37.2796 1318.28 37.1172C1318.56 36.9548 1318.88 36.8321 1319.23 36.7493C1319.57 36.6664 1319.93 36.6035 1320.29 36.5604C1320.75 36.5073 1321.12 36.4643 1321.4 36.4311C1321.69 36.3946 1321.9 36.3366 1322.03 36.2571C1322.15 36.1776 1322.22 36.0483 1322.22 35.8693V35.8345C1322.22 35.4003 1322.1 35.0639 1321.85 34.8253C1321.61 34.5866 1321.25 34.4673 1320.77 34.4673C1320.27 34.4673 1319.87 34.5784 1319.58 34.8004C1319.3 35.0192 1319.1 35.2628 1318.99 35.5312L1317.6 35.2131C1317.76 34.7491 1318 34.3745 1318.32 34.0895C1318.64 33.8011 1319.01 33.5923 1319.43 33.4631C1319.85 33.3305 1320.29 33.2642 1320.75 33.2642C1321.05 33.2642 1321.38 33.3007 1321.72 33.3736C1322.06 33.4432 1322.38 33.5724 1322.68 33.7614C1322.98 33.9503 1323.23 34.2204 1323.42 34.5717C1323.61 34.9197 1323.71 35.3722 1323.71 35.929V41H1322.26V39.956H1322.2C1322.1 40.1482 1321.96 40.3371 1321.77 40.5227C1321.57 40.7083 1321.33 40.8625 1321.03 40.9851C1320.72 41.1077 1320.36 41.169 1319.94 41.169ZM1320.27 39.9759C1320.68 39.9759 1321.03 39.8946 1321.32 39.7322C1321.61 39.5698 1321.84 39.3577 1321.99 39.0959C1322.15 38.8307 1322.22 38.5473 1322.22 38.2457V37.2614C1322.17 37.3144 1322.07 37.3641 1321.92 37.4105C1321.77 37.4536 1321.6 37.4917 1321.4 37.5249C1321.21 37.5547 1321.02 37.5829 1320.84 37.6094C1320.66 37.6326 1320.51 37.6525 1320.38 37.669C1320.1 37.7055 1319.83 37.7668 1319.59 37.853C1319.36 37.9392 1319.17 38.0634 1319.03 38.2259C1318.89 38.3849 1318.82 38.5971 1318.82 38.8622C1318.82 39.2301 1318.95 39.5085 1319.23 39.6974C1319.5 39.883 1319.84 39.9759 1320.27 39.9759ZM1325.69 41V33.3636H1327.18V41H1325.69ZM1326.44 32.1854C1326.18 32.1854 1325.96 32.0992 1325.78 31.9268C1325.59 31.7512 1325.5 31.5424 1325.5 31.3004C1325.5 31.0552 1325.59 30.8464 1325.78 30.674C1325.96 30.4983 1326.18 30.4105 1326.44 30.4105C1326.7 30.4105 1326.92 30.4983 1327.1 30.674C1327.29 30.8464 1327.38 31.0552 1327.38 31.3004C1327.38 31.5424 1327.29 31.7512 1327.1 31.9268C1326.92 32.0992 1326.7 32.1854 1326.44 32.1854ZM1334.9 35.228L1333.55 35.4666C1333.5 35.2943 1333.41 35.1302 1333.28 34.9744C1333.16 34.8187 1333 34.6911 1332.8 34.5916C1332.59 34.4922 1332.33 34.4425 1332.03 34.4425C1331.6 34.4425 1331.25 34.5369 1330.97 34.7259C1330.69 34.9115 1330.55 35.1518 1330.55 35.4467C1330.55 35.7019 1330.64 35.9074 1330.83 36.0632C1331.02 36.219 1331.33 36.3466 1331.75 36.446L1332.96 36.7244C1333.66 36.8868 1334.19 37.1371 1334.53 37.4751C1334.88 37.8132 1335.05 38.2524 1335.05 38.7926C1335.05 39.25 1334.92 39.6577 1334.65 40.0156C1334.39 40.3703 1334.02 40.6487 1333.55 40.8509C1333.08 41.053 1332.54 41.1541 1331.93 41.1541C1331.07 41.1541 1330.37 40.9718 1329.83 40.6072C1329.29 40.2393 1328.96 39.7173 1328.84 39.0412L1330.28 38.8224C1330.37 39.197 1330.55 39.4804 1330.83 39.6726C1331.11 39.8615 1331.47 39.956 1331.92 39.956C1332.4 39.956 1332.79 39.8549 1333.08 39.6527C1333.38 39.4472 1333.52 39.197 1333.52 38.902C1333.52 38.6634 1333.43 38.4628 1333.25 38.3004C1333.08 38.138 1332.81 38.0154 1332.44 37.9325L1331.15 37.6491C1330.44 37.4867 1329.91 37.2282 1329.57 36.8736C1329.23 36.5189 1329.06 36.0698 1329.06 35.5263C1329.06 35.0755 1329.19 34.6811 1329.44 34.343C1329.69 34.005 1330.04 33.7415 1330.48 33.5526C1330.93 33.3603 1331.44 33.2642 1332.01 33.2642C1332.84 33.2642 1333.49 33.4432 1333.96 33.8011C1334.43 34.1558 1334.75 34.6314 1334.9 35.228ZM1339.97 41.1541C1339.22 41.1541 1338.57 40.9934 1338.03 40.6719C1337.49 40.3471 1337.07 39.8913 1336.78 39.3047C1336.49 38.7147 1336.34 38.0237 1336.34 37.2315C1336.34 36.4493 1336.49 35.7599 1336.78 35.1634C1337.07 34.5668 1337.48 34.1011 1338.01 33.7663C1338.54 33.4316 1339.16 33.2642 1339.87 33.2642C1340.3 33.2642 1340.72 33.3355 1341.12 33.478C1341.53 33.6205 1341.89 33.8442 1342.21 34.1491C1342.53 34.4541 1342.79 34.8501 1342.97 35.3374C1343.16 35.8213 1343.25 36.4096 1343.25 37.1023V37.6293H1337.18V36.5156H1341.79C1341.79 36.1245 1341.71 35.7782 1341.56 35.4766C1341.4 35.1716 1341.17 34.9313 1340.88 34.7557C1340.6 34.58 1340.26 34.4922 1339.88 34.4922C1339.46 34.4922 1339.1 34.5949 1338.79 34.8004C1338.48 35.0026 1338.24 35.2678 1338.07 35.5959C1337.9 35.9207 1337.82 36.2737 1337.82 36.6548V37.5249C1337.82 38.0353 1337.91 38.4695 1338.09 38.8274C1338.27 39.1854 1338.53 39.4588 1338.85 39.6477C1339.18 39.8333 1339.55 39.9261 1339.99 39.9261C1340.27 39.9261 1340.53 39.8864 1340.76 39.8068C1340.99 39.724 1341.19 39.6013 1341.36 39.4389C1341.53 39.2765 1341.66 39.076 1341.75 38.8374L1343.16 39.0909C1343.04 39.5052 1342.84 39.8681 1342.55 40.1797C1342.26 40.4879 1341.9 40.7282 1341.46 40.9006C1341.03 41.0696 1340.53 41.1541 1339.97 41.1541ZM1345.22 41L1349.67 32.2102V32.1357H1344.53V30.8182H1351.26V32.1804L1346.83 41H1345.22ZM1356.24 30.679C1356.69 30.6823 1357.14 30.7652 1357.58 30.9276C1358.02 31.09 1358.42 31.3551 1358.77 31.723C1359.13 32.0909 1359.41 32.5881 1359.63 33.2145C1359.84 33.8376 1359.95 34.6132 1359.95 35.5412C1359.95 36.4328 1359.87 37.2266 1359.69 37.9226C1359.51 38.6153 1359.25 39.2003 1358.92 39.6776C1358.58 40.1548 1358.18 40.5178 1357.71 40.7663C1357.23 41.0149 1356.7 41.1392 1356.11 41.1392C1355.5 41.1392 1354.96 41.0199 1354.49 40.7812C1354.02 40.5426 1353.64 40.2128 1353.34 39.7919C1353.05 39.3677 1352.86 38.8804 1352.79 38.3303H1354.31C1354.41 38.7678 1354.61 39.1224 1354.91 39.3942C1355.22 39.6626 1355.62 39.7969 1356.11 39.7969C1356.85 39.7969 1357.43 39.4721 1357.85 38.8224C1358.27 38.1695 1358.48 37.258 1358.48 36.0881H1358.4C1358.23 36.3731 1358.02 36.6184 1357.76 36.8239C1357.5 37.0294 1357.22 37.1884 1356.9 37.3011C1356.58 37.4138 1356.24 37.4702 1355.88 37.4702C1355.29 37.4702 1354.76 37.326 1354.28 37.0376C1353.8 36.7493 1353.41 36.3532 1353.13 35.8494C1352.84 35.3456 1352.7 34.7706 1352.7 34.1243C1352.7 33.4813 1352.85 32.898 1353.14 32.3743C1353.43 31.8506 1353.84 31.4363 1354.37 31.1314C1354.9 30.8232 1355.52 30.6723 1356.24 30.679ZM1356.24 31.9716C1355.85 31.9716 1355.5 32.0677 1355.19 32.2599C1354.88 32.4489 1354.64 32.7057 1354.46 33.0305C1354.28 33.352 1354.19 33.71 1354.19 34.1044C1354.19 34.4988 1354.28 34.8568 1354.45 35.1783C1354.63 35.4964 1354.87 35.75 1355.17 35.9389C1355.47 36.1245 1355.82 36.2173 1356.21 36.2173C1356.5 36.2173 1356.77 36.161 1357.03 36.0483C1357.28 35.9356 1357.5 35.7798 1357.69 35.581C1357.88 35.3788 1358.02 35.1501 1358.13 34.8949C1358.24 34.6397 1358.29 34.3712 1358.29 34.0895C1358.29 33.715 1358.2 33.367 1358.02 33.0455C1357.85 32.724 1357.6 32.4654 1357.3 32.2699C1356.99 32.071 1356.64 31.9716 1356.24 31.9716ZM1365.3 41.169C1364.51 41.1657 1363.84 40.9586 1363.28 40.5476C1362.73 40.1366 1362.3 39.5384 1362 38.7528C1361.71 37.9673 1361.56 37.0211 1361.56 35.9141C1361.56 34.8104 1361.71 33.8674 1362 33.0852C1362.3 32.303 1362.73 31.7064 1363.29 31.2955C1363.85 30.8845 1364.52 30.679 1365.3 30.679C1366.07 30.679 1366.74 30.8861 1367.3 31.3004C1367.86 31.7114 1368.28 32.308 1368.58 33.0902C1368.88 33.8691 1369.02 34.8104 1369.02 35.9141C1369.02 37.0244 1368.88 37.9723 1368.58 38.7578C1368.29 39.54 1367.86 40.1383 1367.3 40.5526C1366.75 40.9635 1366.08 41.169 1365.3 41.169ZM1365.3 39.8416C1365.99 39.8416 1366.52 39.5052 1366.91 38.8324C1367.3 38.1596 1367.5 37.1868 1367.5 35.9141C1367.5 35.0689 1367.41 34.3546 1367.23 33.7713C1367.05 33.1847 1366.8 32.7405 1366.47 32.4389C1366.14 32.134 1365.75 31.9815 1365.3 31.9815C1364.61 31.9815 1364.07 32.3196 1363.68 32.9957C1363.29 33.6719 1363.09 34.6446 1363.09 35.9141C1363.09 36.7625 1363.18 37.4801 1363.35 38.0668C1363.53 38.6501 1363.78 39.0926 1364.11 39.3942C1364.44 39.6925 1364.83 39.8416 1365.3 39.8416ZM1376.89 42.3026C1375.87 42.3026 1374.95 42.1617 1374.16 41.88C1373.37 41.6016 1372.7 41.1922 1372.16 40.652C1371.61 40.1084 1371.2 39.4439 1370.92 38.6584C1370.64 37.8729 1370.49 36.9763 1370.49 35.9688C1370.49 34.9877 1370.64 34.1061 1370.92 33.3239C1371.21 32.5417 1371.62 31.8755 1372.17 31.3253C1372.71 30.7718 1373.38 30.3492 1374.16 30.0575C1374.94 29.7659 1375.83 29.62 1376.82 29.62C1377.77 29.62 1378.61 29.7692 1379.34 30.0675C1380.06 30.3658 1380.67 30.7751 1381.17 31.2955C1381.67 31.8158 1382.04 32.4124 1382.29 33.0852C1382.54 33.758 1382.67 34.469 1382.67 35.218C1382.67 35.7417 1382.64 36.2538 1382.57 36.7543C1382.5 37.2514 1382.38 37.7022 1382.2 38.1065C1382.03 38.5076 1381.77 38.8291 1381.44 39.071C1381.11 39.3097 1380.67 39.4339 1380.14 39.4439C1379.86 39.4538 1379.59 39.4207 1379.32 39.3445C1379.06 39.2682 1378.83 39.1456 1378.65 38.9766C1378.46 38.8042 1378.35 38.5855 1378.31 38.3203H1378.25C1378.17 38.5159 1378.04 38.6982 1377.85 38.8672C1377.67 39.0329 1377.43 39.1655 1377.14 39.2649C1376.86 39.361 1376.53 39.4008 1376.15 39.3842C1375.73 39.3677 1375.35 39.2732 1375.02 39.1009C1374.68 38.9285 1374.4 38.6899 1374.16 38.3849C1373.92 38.08 1373.74 37.7187 1373.62 37.3011C1373.49 36.8835 1373.43 36.4195 1373.43 35.9091C1373.43 35.4186 1373.5 34.9794 1373.64 34.5916C1373.78 34.2005 1373.98 33.8641 1374.22 33.5824C1374.47 33.2973 1374.76 33.072 1375.08 32.9062C1375.4 32.7405 1375.74 32.6361 1376.1 32.593C1376.45 32.5533 1376.77 32.5632 1377.06 32.6229C1377.35 32.6825 1377.59 32.7737 1377.78 32.8963C1377.98 33.0189 1378.1 33.1532 1378.15 33.299H1378.22V32.7422H1379.44V37.3558C1379.44 37.6177 1379.51 37.8397 1379.64 38.022C1379.78 38.2043 1379.98 38.2955 1380.23 38.2955C1380.54 38.2955 1380.77 38.1844 1380.94 37.9624C1381.11 37.7403 1381.23 37.3989 1381.3 36.9382C1381.38 36.4775 1381.41 35.8875 1381.41 35.1683C1381.41 34.6645 1381.34 34.1906 1381.21 33.7464C1381.08 33.299 1380.88 32.8946 1380.62 32.5334C1380.36 32.1688 1380.04 31.8556 1379.66 31.5938C1379.28 31.3319 1378.85 31.1297 1378.37 30.9872C1377.89 30.8447 1377.36 30.7734 1376.77 30.7734C1375.98 30.7734 1375.28 30.8961 1374.66 31.1413C1374.04 31.3833 1373.52 31.733 1373.1 32.1903C1372.68 32.6477 1372.36 33.1963 1372.14 33.8359C1371.92 34.4723 1371.82 35.1866 1371.82 35.9787C1371.82 36.804 1371.93 37.5365 1372.15 38.1761C1372.37 38.8125 1372.7 39.3494 1373.13 39.7869C1373.57 40.2244 1374.11 40.5575 1374.75 40.7862C1375.39 41.0116 1376.12 41.1243 1376.96 41.1243C1377.33 41.1243 1377.69 41.0911 1378.05 41.0249C1378.41 40.9619 1378.73 40.8906 1379.01 40.8111C1379.29 40.7282 1379.5 40.6619 1379.64 40.6122L1379.99 41.701C1379.78 41.7971 1379.51 41.8916 1379.17 41.9844C1378.83 42.0772 1378.46 42.1534 1378.06 42.2131C1377.67 42.2727 1377.28 42.3026 1376.89 42.3026ZM1376.44 38.1662C1376.87 38.1662 1377.21 38.08 1377.47 37.9077C1377.74 37.7353 1377.93 37.4785 1378.05 37.1371C1378.17 36.7924 1378.23 36.3615 1378.23 35.8445C1378.22 35.3407 1378.16 34.9396 1378.03 34.6413C1377.91 34.3397 1377.72 34.1243 1377.45 33.995C1377.2 33.8625 1376.86 33.7962 1376.46 33.7962C1376.08 33.7962 1375.76 33.8873 1375.5 34.0696C1375.23 34.2519 1375.03 34.4988 1374.89 34.8104C1374.76 35.1219 1374.69 35.4683 1374.69 35.8494C1374.69 36.2505 1374.75 36.6283 1374.85 36.983C1374.97 37.3343 1375.15 37.6193 1375.4 37.8381C1375.66 38.0568 1376 38.1662 1376.44 38.1662ZM1391.37 34.0348C1391.27 33.7332 1391.14 33.4631 1390.98 33.2244C1390.82 32.9825 1390.63 32.777 1390.41 32.608C1390.19 32.4356 1389.93 32.3047 1389.65 32.2152C1389.36 32.1257 1389.05 32.081 1388.72 32.081C1388.14 32.081 1387.63 32.2285 1387.17 32.5234C1386.7 32.8184 1386.34 33.2509 1386.07 33.821C1385.81 34.3878 1385.67 35.0821 1385.67 35.9041C1385.67 36.7294 1385.81 37.4271 1386.08 37.9972C1386.35 38.5672 1386.71 38.9998 1387.18 39.2947C1387.65 39.5897 1388.18 39.7372 1388.78 39.7372C1389.33 39.7372 1389.81 39.6245 1390.22 39.3991C1390.64 39.1738 1390.96 38.8556 1391.18 38.4446C1391.41 38.0303 1391.53 37.5431 1391.53 36.983L1391.92 37.0575H1389.01V35.7898H1393.01V36.9482C1393.01 37.8033 1392.83 38.5457 1392.47 39.1754C1392.1 39.8018 1391.6 40.2857 1390.96 40.6271C1390.33 40.9685 1389.6 41.1392 1388.78 41.1392C1387.86 41.1392 1387.05 40.9271 1386.35 40.5028C1385.66 40.0786 1385.12 39.477 1384.73 38.6982C1384.34 37.916 1384.15 36.9879 1384.15 35.9141C1384.15 35.102 1384.26 34.3729 1384.49 33.7266C1384.71 33.0803 1385.03 32.5317 1385.44 32.081C1385.85 31.6269 1386.33 31.2805 1386.88 31.0419C1387.44 30.8 1388.05 30.679 1388.71 30.679C1389.26 30.679 1389.77 30.7602 1390.24 30.9226C1390.72 31.085 1391.14 31.3153 1391.52 31.6136C1391.89 31.9119 1392.2 32.2666 1392.45 32.6776C1392.69 33.0852 1392.86 33.5376 1392.94 34.0348H1391.37ZM1394.84 41V33.3636H1396.27V34.6065H1396.36C1396.52 34.1856 1396.78 33.8575 1397.14 33.6222C1397.51 33.3835 1397.94 33.2642 1398.44 33.2642C1398.95 33.2642 1399.38 33.3835 1399.73 33.6222C1400.07 33.8608 1400.33 34.1889 1400.5 34.6065H1400.58C1400.76 34.1989 1401.05 33.8741 1401.45 33.6321C1401.84 33.3868 1402.32 33.2642 1402.87 33.2642C1403.56 33.2642 1404.12 33.4813 1404.56 33.9155C1405 34.3497 1405.22 35.0043 1405.22 35.8793V41H1403.74V36.0185C1403.74 35.5014 1403.6 35.1269 1403.31 34.8949C1403.03 34.6629 1402.7 34.5469 1402.31 34.5469C1401.82 34.5469 1401.45 34.696 1401.18 34.9943C1400.91 35.2893 1400.77 35.6688 1400.77 36.1328V41H1399.29V35.924C1399.29 35.5097 1399.16 35.1766 1398.9 34.9247C1398.65 34.6728 1398.31 34.5469 1397.9 34.5469C1397.61 34.5469 1397.35 34.6214 1397.12 34.7706C1396.88 34.9164 1396.69 35.1203 1396.54 35.3821C1396.4 35.6439 1396.33 35.9472 1396.33 36.2919V41H1394.84ZM1409.44 41.169C1408.95 41.169 1408.52 41.0795 1408.13 40.9006C1407.73 40.7183 1407.42 40.4548 1407.2 40.1101C1406.97 39.7654 1406.86 39.3428 1406.86 38.8423C1406.86 38.4115 1406.94 38.0568 1407.11 37.7784C1407.27 37.5 1407.5 37.2796 1407.78 37.1172C1408.06 36.9548 1408.37 36.8321 1408.72 36.7493C1409.07 36.6664 1409.43 36.6035 1409.79 36.5604C1410.24 36.5073 1410.61 36.4643 1410.9 36.4311C1411.19 36.3946 1411.39 36.3366 1411.52 36.2571C1411.65 36.1776 1411.72 36.0483 1411.72 35.8693V35.8345C1411.72 35.4003 1411.59 35.0639 1411.35 34.8253C1411.11 34.5866 1410.74 34.4673 1410.26 34.4673C1409.76 34.4673 1409.37 34.5784 1409.08 34.8004C1408.8 35.0192 1408.6 35.2628 1408.49 35.5312L1407.09 35.2131C1407.26 34.7491 1407.5 34.3745 1407.82 34.0895C1408.14 33.8011 1408.51 33.5923 1408.93 33.4631C1409.34 33.3305 1409.78 33.2642 1410.24 33.2642C1410.55 33.2642 1410.87 33.3007 1411.21 33.3736C1411.56 33.4432 1411.88 33.5724 1412.18 33.7614C1412.48 33.9503 1412.73 34.2204 1412.92 34.5717C1413.11 34.9197 1413.21 35.3722 1413.21 35.929V41H1411.76V39.956H1411.7C1411.6 40.1482 1411.46 40.3371 1411.26 40.5227C1411.07 40.7083 1410.82 40.8625 1410.52 40.9851C1410.22 41.1077 1409.86 41.169 1409.44 41.169ZM1409.76 39.9759C1410.17 39.9759 1410.52 39.8946 1410.82 39.7322C1411.11 39.5698 1411.33 39.3577 1411.49 39.0959C1411.64 38.8307 1411.72 38.5473 1411.72 38.2457V37.2614C1411.67 37.3144 1411.56 37.3641 1411.41 37.4105C1411.26 37.4536 1411.09 37.4917 1410.9 37.5249C1410.71 37.5547 1410.52 37.5829 1410.34 37.6094C1410.16 37.6326 1410 37.6525 1409.88 37.669C1409.59 37.7055 1409.33 37.7668 1409.09 37.853C1408.86 37.9392 1408.67 38.0634 1408.52 38.2259C1408.38 38.3849 1408.31 38.5971 1408.31 38.8622C1408.31 39.2301 1408.45 39.5085 1408.72 39.6974C1408.99 39.883 1409.34 39.9759 1409.76 39.9759ZM1415.19 41V33.3636H1416.67V41H1415.19ZM1415.94 32.1854C1415.68 32.1854 1415.46 32.0992 1415.27 31.9268C1415.09 31.7512 1415 31.5424 1415 31.3004C1415 31.0552 1415.09 30.8464 1415.27 30.674C1415.46 30.4983 1415.68 30.4105 1415.94 30.4105C1416.2 30.4105 1416.42 30.4983 1416.6 30.674C1416.78 30.8464 1416.88 31.0552 1416.88 31.3004C1416.88 31.5424 1416.78 31.7512 1416.6 31.9268C1416.42 32.0992 1416.2 32.1854 1415.94 32.1854ZM1420.16 30.8182V41H1418.67V30.8182H1420.16ZM1423.14 41.0945C1422.87 41.0945 1422.63 40.9983 1422.44 40.8061C1422.24 40.6106 1422.14 40.3752 1422.14 40.1001C1422.14 39.8284 1422.24 39.5964 1422.44 39.4041C1422.63 39.2086 1422.87 39.1108 1423.14 39.1108C1423.41 39.1108 1423.64 39.2086 1423.84 39.4041C1424.04 39.5964 1424.13 39.8284 1424.13 40.1001C1424.13 40.2824 1424.09 40.4498 1423.99 40.6023C1423.9 40.7514 1423.79 40.8707 1423.64 40.9602C1423.49 41.0497 1423.32 41.0945 1423.14 41.0945ZM1427.12 41.0945C1426.85 41.0945 1426.61 40.9983 1426.42 40.8061C1426.22 40.6106 1426.12 40.3752 1426.12 40.1001C1426.12 39.8284 1426.22 39.5964 1426.42 39.4041C1426.61 39.2086 1426.85 39.1108 1427.12 39.1108C1427.39 39.1108 1427.62 39.2086 1427.82 39.4041C1428.02 39.5964 1428.11 39.8284 1428.11 40.1001C1428.11 40.2824 1428.07 40.4498 1427.97 40.6023C1427.88 40.7514 1427.76 40.8707 1427.62 40.9602C1427.47 41.0497 1427.3 41.0945 1427.12 41.0945ZM1430.83 41.0945C1430.56 41.0945 1430.33 40.9983 1430.13 40.8061C1429.94 40.6106 1429.84 40.3752 1429.84 40.1001C1429.84 39.8284 1429.94 39.5964 1430.13 39.4041C1430.33 39.2086 1430.56 39.1108 1430.83 39.1108C1431.1 39.1108 1431.34 39.2086 1431.53 39.4041C1431.73 39.5964 1431.83 39.8284 1431.83 40.1001C1431.83 40.2824 1431.78 40.4498 1431.69 40.6023C1431.6 40.7514 1431.48 40.8707 1431.33 40.9602C1431.18 41.0497 1431.01 41.0945 1430.83 41.0945ZM1434.55 41.0945C1434.28 41.0945 1434.05 40.9983 1433.85 40.8061C1433.65 40.6106 1433.56 40.3752 1433.56 40.1001C1433.56 39.8284 1433.65 39.5964 1433.85 39.4041C1434.05 39.2086 1434.28 39.1108 1434.55 39.1108C1434.82 39.1108 1435.06 39.2086 1435.25 39.4041C1435.45 39.5964 1435.55 39.8284 1435.55 40.1001C1435.55 40.2824 1435.5 40.4498 1435.41 40.6023C1435.32 40.7514 1435.2 40.8707 1435.05 40.9602C1434.9 41.0497 1434.73 41.0945 1434.55 41.0945Z" fill="white" fill-opacity="0.5"/>
<path d="M1454 33L1460 39L1466 33" stroke="white" stroke-width="2" stroke-linecap="round" stroke-linejoin="round"/>
</svg>
